<?xml version="1.0" encoding="utf-8"?>
<!-- Generator: Adobe Illustrator 24.2.1, SVG Export Plug-In . SVG Version: 6.00 Build 0)  -->
<svg version="1.1" id="Calque_1" xmlns="http://www.w3.org/2000/svg" xmlns:xlink="http://www.w3.org/1999/xlink" x="0px" y="0px"
	 viewBox="0 0 16 16" style="enable-background:new 0 0 16 16;" xml:space="preserve">
<style type="text/css">
	.st0{fill:#3561AB;}
</style>
<path class="st0" d="M8.89,11.67c-0.13-0.4-0.26-0.75-0.38-1.05C8.4,10.31,8.3,10.05,8.21,9.83c-0.5,0.17-1.04,0.28-1.63,0.34
	c0,0.82,0.02,1.51,0.06,2.09c0.01,0.36,0.03,0.66,0.04,0.92c0.03,0.24,0.04,0.45,0.06,0.63c0.03,0.18,0.05,0.34,0.08,0.48
	c0.03,0.15,0.06,0.3,0.11,0.44c-0.26,0.19-0.5,0.33-0.75,0.42c-0.23,0.09-0.43,0.15-0.61,0.19c-0.22,0.05-0.41,0.06-0.57,0.04
	c-0.06-0.18-0.12-0.37-0.17-0.57C4.77,14.61,4.73,14.35,4.7,14c-0.01-0.33-0.02-0.76-0.02-1.28c0-0.52,0.02-1.19,0.06-2.01
	c0.01-0.09,0.02-0.18,0.02-0.27s0.01-0.18,0.02-0.27c-0.11-0.01-0.24-0.03-0.36-0.04c-0.11-0.01-0.23-0.03-0.34-0.04
	C4,9.89,3.94,9.71,3.92,9.56c-0.03-0.17-0.04-0.3-0.04-0.4c0-0.13,0.01-0.23,0.04-0.31c0.2,0.04,0.41,0.06,0.61,0.06h0.29
	c0.03-0.54,0.05-1.08,0.08-1.63c0.03-0.56,0.04-1.1,0.06-1.63C4.98,5.12,5,4.62,5.01,4.14c0.01-0.48,0.03-0.93,0.04-1.32
	c-0.38,0.26-0.71,0.59-1,1C3.77,4.23,3.58,4.7,3.48,5.23c-0.17-0.03-0.31-0.1-0.42-0.23C2.94,4.86,2.85,4.72,2.77,4.58
	C2.68,4.42,2.6,4.23,2.54,4.03c-0.06-0.24-0.06-0.48,0-0.73C2.6,3.05,2.7,2.81,2.83,2.59C2.96,2.36,3.1,2.17,3.27,2
	c0.17-0.18,0.33-0.32,0.48-0.42c0.27-0.17,0.54-0.31,0.82-0.44C4.86,1,5.19,0.88,5.55,0.79C5.69,0.65,5.84,0.53,6,0.41
	C6.18,0.3,6.35,0.23,6.5,0.2c0.22-0.05,0.34,0.08,0.36,0.4C6.98,0.59,7.1,0.58,7.23,0.58c0.13-0.01,0.26-0.02,0.4-0.02
	c0.48,0,0.99,0.08,1.51,0.23c0.52,0.15,1,0.4,1.44,0.75c0.45,0.33,0.81,0.77,1.09,1.32c0.28,0.54,0.42,1.19,0.42,1.97
	c0,0.88-0.21,1.69-0.63,2.43C11.05,8,10.46,8.62,9.7,9.1c0.09,0.23,0.2,0.52,0.34,0.86c0.14,0.34,0.28,0.73,0.42,1.17
	c0.2,0.54,0.42,1.04,0.65,1.51c0.24,0.46,0.49,0.86,0.75,1.21c0.26,0.34,0.52,0.62,0.8,0.82c0.28,0.22,0.56,0.34,0.84,0.38
	c-0.17,0.26-0.36,0.43-0.57,0.54c-0.22,0.1-0.43,0.17-0.65,0.19c-0.24,0.04-0.5,0.04-0.77,0c-0.37-0.08-0.69-0.26-0.96-0.54
	c-0.27-0.28-0.5-0.62-0.71-1.01c-0.19-0.4-0.37-0.82-0.54-1.26C9.16,12.51,9.02,12.07,8.89,11.67z M6.67,3.51
	c0,0.28-0.01,0.62-0.02,1.01c-0.01,0.4-0.03,0.82-0.04,1.28c0,0.46-0.01,0.94-0.02,1.45c-0.01,0.5-0.02,1-0.02,1.49
	C6.92,8.71,7.3,8.62,7.71,8.51C8.13,8.39,8.52,8.2,8.88,7.93c0.36-0.27,0.66-0.63,0.9-1.07c0.24-0.45,0.36-1.02,0.36-1.72
	c0-0.54-0.1-0.99-0.29-1.36C9.67,3.4,9.44,3.09,9.14,2.86C8.85,2.62,8.52,2.45,8.17,2.34C7.82,2.23,7.48,2.17,7.13,2.17
	c-0.06,0-0.13,0-0.19,0c-0.06,0-0.13,0.01-0.21,0.02C6.69,2.6,6.67,3.04,6.67,3.51z"/>
</svg>
